<svg xmlns="http://www.w3.org/2000/svg" viewBox="0 0 32 32">
  <defs>
    <linearGradient id="grad" x1="0%" y1="0%" x2="100%" y2="100%">
      <stop offset="0%" style="stop-color:#22d3ee"/>
      <stop offset="50%" style="stop-color:#0ea5e9"/>
      <stop offset="100%" style="stop-color:#8b5cf6"/>
    </linearGradient>
  </defs>
  <!-- Background -->
  <rect width="32" height="32" rx="7" fill="#0f172a"/>
  <!-- Outer ring -->
  <circle cx="16" cy="16" r="12" fill="none" stroke="url(#grad)" stroke-width="2"/>
  <!-- Inner ring -->
  <circle cx="16" cy="16" r="8" fill="none" stroke="url(#grad)" stroke-width="1.5" opacity="0.7"/>
  <!-- Radar sweep -->
  <path d="M16 4 A12 12 0 0 1 28 16" fill="none" stroke="url(#grad)" stroke-width="2.5" stroke-linecap="round"/>
  <!-- Airplane -->
  <g transform="translate(16,16) rotate(-45) scale(0.4) translate(-12,-12)">
    <path fill="url(#grad)" d="M21 16v-2l-8-5V3.5A1.5 1.5 0 0 0 11.5 2 1.5 1.5 0 0 0 10 3.5V9l-8 5v2l8-2.5V19l-2 1.5V22l3.5-1 3.5 1v-1.5L13 19v-5.5l8 2.5z"/>
  </g>
</svg>
