<svg xmlns="http://www.w3.org/2000/svg" viewBox="0 0 512 512">
  <defs>
    <linearGradient id="grad" x1="0%" y1="0%" x2="100%" y2="100%">
      <stop offset="0%" style="stop-color:#0ea5e9"/>
      <stop offset="100%" style="stop-color:#6366f1"/>
    </linearGradient>
    <linearGradient id="grad2" x1="0%" y1="100%" x2="100%" y2="0%">
      <stop offset="0%" style="stop-color:#0ea5e9;stop-opacity:0.3"/>
      <stop offset="100%" style="stop-color:#6366f1;stop-opacity:0.3"/>
    </linearGradient>
  </defs>

  <!-- Background circle -->
  <circle cx="256" cy="256" r="240" fill="url(#grad)"/>

  <!-- Inner radar rings -->
  <circle cx="256" cy="256" r="180" fill="none" stroke="rgba(255,255,255,0.15)" stroke-width="2"/>
  <circle cx="256" cy="256" r="120" fill="none" stroke="rgba(255,255,255,0.1)" stroke-width="2"/>

  <!-- Airplane icon (centered, white) -->
  <g transform="translate(256,256) scale(5.5) translate(-24,-24)">
    <path fill="white" d="M21 16v-2l-8-5V3.5A1.5 1.5 0 0 0 11.5 2 1.5 1.5 0 0 0 10 3.5V9l-8 5v2l8-2.5V19l-2 1.5V22l3.5-1 3.5 1v-1.5L13 19v-5.5l8 2.5z"/>
  </g>

  <!-- Lens flare accent -->
  <ellipse cx="340" cy="170" rx="40" ry="20" fill="rgba(255,255,255,0.2)" transform="rotate(-45 340 170)"/>
</svg>
